<svg xmlns="http://www.w3.org/2000/svg" viewBox="0 0 16 16" width="16" height="16">
  <defs>
    <linearGradient id="grad2" x1="0%" y1="0%" x2="100%" y2="100%">
      <stop offset="0%" style="stop-color:#1976d2;stop-opacity:1" />
      <stop offset="100%" style="stop-color:#42a5f5;stop-opacity:1" />
    </linearGradient>
  </defs>
  
  <!-- Background circle -->
  <circle cx="8" cy="8" r="7.5" fill="url(#grad2)" stroke="#1565c0" stroke-width="0.5"/>
  
  <!-- Network/web icon representing connectivity -->
  <g fill="white" stroke="white" stroke-width="0.3">
    <!-- Central node -->
    <circle cx="8" cy="8" r="1" fill="white"/>
    
    <!-- Surrounding nodes -->
    <circle cx="5" cy="4" r="0.7"/>
    <circle cx="11" cy="4" r="0.7"/>
    <circle cx="4" cy="8" r="0.7"/>
    <circle cx="12" cy="8" r="0.7"/>
    <circle cx="5" cy="12" r="0.7"/>
    <circle cx="11" cy="12" r="0.7"/>
    
    <!-- Connection lines -->
    <line x1="8" y1="8" x2="5" y2="4" stroke="white" stroke-width="0.5"/>
    <line x1="8" y1="8" x2="11" y2="4" stroke="white" stroke-width="0.5"/>
    <line x1="8" y1="8" x2="4" y2="8" stroke="white" stroke-width="0.5"/>
    <line x1="8" y1="8" x2="12" y2="8" stroke="white" stroke-width="0.5"/>
    <line x1="8" y1="8" x2="5" y2="12" stroke="white" stroke-width="0.5"/>
    <line x1="8" y1="8" x2="11" y2="12" stroke="white" stroke-width="0.5"/>
  </g>
  
  <!-- Small magnifying glass overlay -->
  <g transform="translate(10, 10)">
    <circle cx="2" cy="2" r="1.5" fill="none" stroke="white" stroke-width="0.5"/>
    <line x1="3" y1="3" x2="4" y2="4" stroke="white" stroke-width="0.7" stroke-linecap="round"/>
  </g>
</svg>
