<svg xmlns="http://www.w3.org/2000/svg" viewBox="0 0 32 32" width="32" height="32">
  <defs>
    <linearGradient id="grad1" x1="0%" y1="0%" x2="100%" y2="100%">
      <stop offset="0%" style="stop-color:#1976d2;stop-opacity:1" />
      <stop offset="100%" style="stop-color:#42a5f5;stop-opacity:1" />
    </linearGradient>
  </defs>
  
  <!-- Background circle -->
  <circle cx="16" cy="16" r="15" fill="url(#grad1)" stroke="#1565c0" stroke-width="1"/>
  
  <!-- Network/web icon representing connectivity -->
  <g fill="white" stroke="white" stroke-width="0.5">
    <!-- Central node -->
    <circle cx="16" cy="16" r="2" fill="white"/>
    
    <!-- Surrounding nodes -->
    <circle cx="10" cy="8" r="1.5"/>
    <circle cx="22" cy="8" r="1.5"/>
    <circle cx="8" cy="16" r="1.5"/>
    <circle cx="24" cy="16" r="1.5"/>
    <circle cx="10" cy="24" r="1.5"/>
    <circle cx="22" cy="24" r="1.5"/>
    
    <!-- Connection lines -->
    <line x1="16" y1="16" x2="10" y2="8" stroke="white" stroke-width="1"/>
    <line x1="16" y1="16" x2="22" y2="8" stroke="white" stroke-width="1"/>
    <line x1="16" y1="16" x2="8" y2="16" stroke="white" stroke-width="1"/>
    <line x1="16" y1="16" x2="24" y2="16" stroke="white" stroke-width="1"/>
    <line x1="16" y1="16" x2="10" y2="24" stroke="white" stroke-width="1"/>
    <line x1="16" y1="16" x2="22" y2="24" stroke="white" stroke-width="1"/>
    
    <!-- Curved connections between outer nodes -->
    <path d="M 10 8 Q 16 4 22 8" stroke="white" stroke-width="0.8" fill="none"/>
    <path d="M 22 8 Q 28 16 22 24" stroke="white" stroke-width="0.8" fill="none"/>
    <path d="M 22 24 Q 16 28 10 24" stroke="white" stroke-width="0.8" fill="none"/>
    <path d="M 10 24 Q 4 16 10 8" stroke="white" stroke-width="0.8" fill="none"/>
  </g>
  
  <!-- Small magnifying glass overlay to represent analysis -->
  <g transform="translate(20, 20)">
    <circle cx="4" cy="4" r="3" fill="none" stroke="white" stroke-width="1"/>
    <line x1="6" y1="6" x2="8" y2="8" stroke="white" stroke-width="1.5" stroke-linecap="round"/>
  </g>
</svg>
